<svg width="218" height="178" viewBox="0 0 218 178" fill="none" xmlns="http://www.w3.org/2000/svg">
<path opacity="0.2" d="M0.642289 161.031C-0.168765 161.781 -0.218387 163.047 0.531456 163.858L12.7509 177.075C13.5007 177.886 14.7661 177.935 15.5771 177.185C16.3882 176.436 16.4378 175.17 15.6879 174.359L4.82625 162.611L16.5746 151.749C17.3857 150.999 17.4353 149.734 16.6854 148.923C15.9356 148.112 14.6702 148.062 13.8592 148.812L0.642289 161.031ZM1.92163 164.498C3.62733 164.565 5.32076 164.628 7.00198 164.686L7.13996 160.688C5.46505 160.63 3.77788 160.568 2.07837 160.502L1.92163 164.498ZM16.9436 164.981C20.209 165.062 23.4262 165.126 26.5959 165.173L26.6547 161.173C23.4989 161.127 20.2951 161.063 17.0428 160.983L16.9436 164.981ZM36.6345 165.264C39.9572 165.276 43.2248 165.267 46.438 165.24L46.4037 161.24C43.2068 161.267 39.9552 161.276 36.6481 161.264L36.6345 165.264ZM56.2843 165.092C59.6531 165.019 62.9587 164.924 66.2021 164.807L66.058 160.809C62.8343 160.926 59.5479 161.02 56.1977 161.093L56.2843 165.092ZM75.9407 164.381C79.3383 164.206 82.6631 164.006 85.9162 163.78L85.6401 159.79C82.411 160.013 79.1096 160.213 75.7346 160.387L75.9407 164.381ZM95.626 163.017C99.0259 162.717 102.342 162.388 105.575 162.031L105.136 158.055C101.933 158.409 98.646 158.735 95.274 159.033L95.626 163.017ZM115.315 160.839C118.678 160.385 121.945 159.899 125.116 159.381L124.471 155.433C121.338 155.945 118.108 156.426 114.78 156.875L115.315 160.839ZM134.901 157.624C138.197 156.977 141.378 156.292 144.448 155.571L143.533 151.677C140.513 152.386 137.38 153.061 134.13 153.7L134.901 157.624ZM154.147 153.071C157.471 152.133 160.646 151.147 163.677 150.116L162.388 146.329C159.428 147.336 156.321 148.301 153.061 149.221L154.147 153.071ZM172.982 146.622C176.19 145.295 179.205 143.907 182.034 142.462L180.215 138.9C177.487 140.293 174.569 141.637 171.453 142.926L172.982 146.622ZM190.729 137.477C193.7 135.56 196.405 133.563 198.855 131.492L196.273 128.437C193.963 130.39 191.397 132.286 188.561 134.116L190.729 137.477ZM206.066 124.36C208.359 121.676 210.298 118.897 211.905 116.036L208.418 114.077C206.943 116.703 205.154 119.269 203.024 121.762L206.066 124.36ZM215.94 106.614C216.944 103.324 217.575 99.9679 217.868 96.5659L213.883 96.2222C213.612 99.3582 213.032 102.438 212.114 105.447L215.94 106.614ZM217.785 86.3829C217.464 83.078 216.87 79.7514 216.034 76.4191L212.154 77.3923C212.946 80.55 213.504 83.6803 213.804 86.7698L217.785 86.3829ZM212.981 66.802C211.811 63.7371 210.461 60.6762 208.954 57.631L205.369 59.4047C206.825 62.3468 208.123 65.2917 209.244 68.2284L212.981 66.802ZM204.174 48.866C202.495 46.0435 200.696 43.2422 198.795 40.4715L195.497 42.7342C197.352 45.4392 199.105 48.1679 200.737 50.9112L204.174 48.866ZM192.933 32.4246C190.92 29.8121 188.828 27.2355 186.673 24.7032L183.627 27.2955C185.742 29.7812 187.793 32.3076 189.765 34.8661L192.933 32.4246ZM180.074 17.288C177.815 14.8566 175.509 12.477 173.171 10.1576L170.354 12.997C172.654 15.2796 174.923 17.6204 177.144 20.0108L180.074 17.288ZM165.992 3.30596C164.773 2.18621 163.55 1.08433 162.324 0.0014292L159.676 2.99857C160.882 4.06479 162.086 5.14971 163.287 6.2522L165.992 3.30596Z" fill="black"/>
</svg>
